<svg width="48" height="48" viewBox="0 0 48 48" fill="none" xmlns="http://www.w3.org/2000/svg">
<path d="M47.1445 17.5117L30.7383 1.10547C30.4453 0.8125 29.957 0.8125 29.6641 1.10547L26.3438 4.42578C26.0508 4.71875 26.0508 5.20703 26.3438 5.5L27.418 6.57422L3.78516 30.207C-0.0234375 34.0156 -0.707031 40.168 2.80859 44.1719C4.85938 46.5156 7.69141 47.6875 10.5234 47.6875C13.0625 47.6875 15.6016 46.7109 17.5547 44.7578L41.6758 20.832L42.75 21.9062C43.043 22.1992 43.5312 22.1992 43.8242 21.9062L47.1445 18.5859C47.4375 18.293 47.4375 17.8047 47.1445 17.5117ZM31.6172 24.25H16.2852L30.7383 9.89453L38.3555 17.5117L31.6172 24.25Z" fill="#004B8D"/>
</svg>
