<svg width="60" height="16" viewBox="0 0 60 16" fill="none" xmlns="http://www.w3.org/2000/svg">
<path d="M1.19531 7.6875C0.878906 8.00391 0.878906 8.53125 1.19531 8.84766L8.01562 15.7031C8.36719 16.0195 8.89453 16.0195 9.21094 15.7031L10.0195 14.8945C10.3359 14.5781 10.3359 14.0508 10.0195 13.6992L4.60547 8.25L10.0195 2.83594C10.3359 2.48438 10.3359 1.95703 10.0195 1.64062L9.21094 0.832031C8.89453 0.515625 8.36719 0.515625 8.01562 0.832031L1.19531 7.6875ZM19.9775 2.15039H23.792C25.5615 2.15039 26.8389 2.4082 27.624 2.92383C28.415 3.43945 28.8105 4.25391 28.8105 5.36719C28.8105 6.11719 28.6172 6.74121 28.2305 7.23926C27.8438 7.7373 27.2871 8.05078 26.5605 8.17969V8.26758C27.4629 8.4375 28.125 8.77441 28.5469 9.27832C28.9746 9.77637 29.1885 10.4531 29.1885 11.3086C29.1885 12.4629 28.7842 13.3682 27.9756 14.0244C27.1729 14.6748 26.0537 15 24.6182 15H19.9775V2.15039ZM22.0781 7.45898H24.0996C24.9785 7.45898 25.6201 7.32129 26.0244 7.0459C26.4287 6.76465 26.6309 6.29004 26.6309 5.62207C26.6309 5.01855 26.4111 4.58203 25.9717 4.3125C25.5381 4.04297 24.8467 3.9082 23.8975 3.9082H22.0781V7.45898ZM22.0781 9.16406V13.2334H24.3105C25.1895 13.2334 25.8516 13.0664 26.2969 12.7324C26.748 12.3926 26.9736 11.8594 26.9736 11.1328C26.9736 10.4648 26.7451 9.96973 26.2881 9.64746C25.8311 9.3252 25.1367 9.16406 24.2051 9.16406H22.0781ZM37.7227 15L37.3096 13.6465H37.2393C36.7705 14.2383 36.2988 14.6426 35.8242 14.8594C35.3496 15.0703 34.7402 15.1758 33.9961 15.1758C33.041 15.1758 32.2939 14.918 31.7549 14.4023C31.2217 13.8867 30.9551 13.1572 30.9551 12.2139C30.9551 11.2119 31.3271 10.4561 32.0713 9.94629C32.8154 9.43652 33.9492 9.1582 35.4727 9.11133L37.1514 9.05859V8.54004C37.1514 7.91895 37.0049 7.45605 36.7119 7.15137C36.4248 6.84082 35.9766 6.68555 35.3672 6.68555C34.8691 6.68555 34.3916 6.75879 33.9346 6.90527C33.4775 7.05176 33.0381 7.22461 32.6162 7.42383L31.9482 5.94727C32.4756 5.67188 33.0527 5.46387 33.6797 5.32324C34.3066 5.17676 34.8984 5.10352 35.4551 5.10352C36.6914 5.10352 37.623 5.37305 38.25 5.91211C38.8828 6.45117 39.1992 7.29785 39.1992 8.45215V15H37.7227ZM34.6465 13.5938C35.3965 13.5938 35.9971 13.3857 36.4482 12.9697C36.9053 12.5479 37.1338 11.959 37.1338 11.2031V10.3594L35.8857 10.4121C34.9131 10.4473 34.2041 10.6113 33.7588 10.9043C33.3193 11.1914 33.0996 11.6338 33.0996 12.2314C33.0996 12.665 33.2285 13.002 33.4863 13.2422C33.7441 13.4766 34.1309 13.5938 34.6465 13.5938ZM46.002 15.1758C44.5312 15.1758 43.4121 14.748 42.6445 13.8926C41.8828 13.0312 41.502 11.7979 41.502 10.1924C41.502 8.55762 41.9004 7.30078 42.6973 6.42188C43.5 5.54297 44.6572 5.10352 46.1689 5.10352C47.1943 5.10352 48.1172 5.29395 48.9375 5.6748L48.3135 7.33594C47.4404 6.99609 46.7197 6.82617 46.1514 6.82617C44.4697 6.82617 43.6289 7.94238 43.6289 10.1748C43.6289 11.2646 43.8369 12.085 44.2529 12.6357C44.6748 13.1807 45.29 13.4531 46.0986 13.4531C47.0186 13.4531 47.8887 13.2246 48.709 12.7676V14.5693C48.3398 14.7861 47.9443 14.9414 47.5225 15.0352C47.1064 15.1289 46.5996 15.1758 46.002 15.1758ZM52.9893 9.86719L54.1582 8.4082L57.0938 5.2793H59.4756L55.5645 9.4541L59.7217 15H57.2959L54.1758 10.7373L53.042 11.6689V15H50.9941V1.32422H53.042V7.99512L52.9365 9.86719H52.9893Z" fill="white"/>
</svg>
